<?xml version="1.0" standalone="no"?>
<!DOCTYPE svg PUBLIC "-//W3C//DTD SVG 20010904//EN"
 "http://www.w3.org/TR/2001/REC-SVG-20010904/DTD/svg10.dtd">
<svg version="1.0" xmlns="http://www.w3.org/2000/svg"
 width="128.000000pt" height="128.000000pt" viewBox="0 0 128.000000 128.000000"
 preserveAspectRatio="xMidYMid meet">

<g transform="translate(0.000000,128.000000) scale(0.100000,-0.100000)"
fill="red" stroke="none">
<path d="M471 1045 c-81 -84 -91 -98 -79 -112 49 -61 159 -163 163 -151 2 7 6
47 7 88 l3 75 77 3 c89 3 86 7 90 -108 l3 -65 83 82 c83 82 83 82 68 110 -13
25 -95 109 -152 156 -19 16 -24 16 -50 2 -36 -19 -52 -19 -88 0 -15 8 -29 15
-31 15 -1 0 -44 -43 -94 -95z"/>
<path d="M213 795 c-79 -77 -86 -87 -71 -98 27 -21 32 -61 12 -102 l-17 -37
85 -84 c57 -57 93 -84 108 -84 16 0 48 25 99 78 l76 77 -60 2 c-33 2 -75 5
-93 9 l-33 5 3 77 3 77 80 3 c44 1 86 5 94 7 8 3 -14 32 -64 80 -104 100 -108
100 -222 -10z"/>
<path d="M854 808 c-41 -39 -71 -74 -68 -77 3 -3 42 -8 87 -11 l82 -5 3 -77 3
-77 -33 -5 c-18 -4 -60 -7 -92 -9 l-59 -2 76 -77 c48 -49 85 -78 99 -78 13 0
53 32 107 85 78 77 85 86 74 105 -19 30 -16 100 5 116 15 12 9 21 -72 99 -62
60 -96 85 -113 85 -18 0 -48 -22 -99 -72z"/>
<path d="M467 422 c-60 -62 -75 -83 -70 -100 3 -12 43 -61 89 -109 77 -80 86
-86 98 -71 16 21 86 24 116 6 19 -12 28 -5 105 73 53 54 85 94 85 107 0 14
-29 51 -77 99 l-78 76 -2 -59 c-2 -32 -5 -74 -9 -92 l-5 -33 -77 3 -77 3 -5
82 c-3 45 -8 84 -11 87 -3 3 -40 -29 -82 -72z"/>
</g>
</svg>
